<?xml version="1.0" encoding="UTF-8"?>
<!DOCTYPE svg PUBLIC "-//W3C//DTD SVG 1.1//EN" "http://www.w3.org/Graphics/SVG/1.1/DTD/svg11.dtd">
<svg version="1.2" width="39.1mm" height="22.1mm" viewBox="0 0 3910 2210" preserveAspectRatio="xMidYMid" fill-rule="evenodd" stroke-width="28.222" stroke-linejoin="round" xmlns="http://www.w3.org/2000/svg" xmlns:ooo="http://xml.openoffice.org/svg/export" xmlns:xlink="http://www.w3.org/1999/xlink" xmlns:presentation="http://sun.com/xmlns/staroffice/presentation" xmlns:smil="http://www.w3.org/2001/SMIL20/" xmlns:anim="urn:oasis:names:tc:opendocument:xmlns:animation:1.0" xml:space="preserve">
 <defs class="ClipPathGroup">
  <clipPath id="presentation_clip_path" clipPathUnits="userSpaceOnUse">
   <rect x="0" y="0" width="3910" height="2210"/>
  </clipPath>
 </defs>
 <defs class="TextShapeIndex">
  <g ooo:slide="id1" ooo:id-list="id3 id4"/>
 </defs>
 <defs class="EmbeddedBulletChars">
  <g id="bullet-char-template(57356)" transform="scale(0.00048828125,-0.00048828125)">
   <path d="M 580,1141 L 1163,571 580,0 -4,571 580,1141 Z"/>
  </g>
  <g id="bullet-char-template(57354)" transform="scale(0.00048828125,-0.00048828125)">
   <path d="M 8,1128 L 1137,1128 1137,0 8,0 8,1128 Z"/>
  </g>
  <g id="bullet-char-template(10146)" transform="scale(0.00048828125,-0.00048828125)">
   <path d="M 174,0 L 602,739 174,1481 1456,739 174,0 Z M 1358,739 L 309,1346 659,739 1358,739 Z"/>
  </g>
  <g id="bullet-char-template(10132)" transform="scale(0.00048828125,-0.00048828125)">
   <path d="M 2015,739 L 1276,0 717,0 1260,543 174,543 174,936 1260,936 717,1481 1274,1481 2015,739 Z"/>
  </g>
  <g id="bullet-char-template(10007)" transform="scale(0.00048828125,-0.00048828125)">
   <path d="M 0,-2 C -7,14 -16,27 -25,37 L 356,567 C 262,823 215,952 215,954 215,979 228,992 255,992 264,992 276,990 289,987 310,991 331,999 354,1012 L 381,999 492,748 772,1049 836,1024 860,1049 C 881,1039 901,1025 922,1006 886,937 835,863 770,784 769,783 710,716 594,584 L 774,223 C 774,196 753,168 711,139 L 727,119 C 717,90 699,76 672,76 641,76 570,178 457,381 L 164,-76 C 142,-110 111,-127 72,-127 30,-127 9,-110 8,-76 1,-67 -2,-52 -2,-32 -2,-23 -1,-13 0,-2 Z"/>
  </g>
  <g id="bullet-char-template(10004)" transform="scale(0.00048828125,-0.00048828125)">
   <path d="M 285,-33 C 182,-33 111,30 74,156 52,228 41,333 41,471 41,549 55,616 82,672 116,743 169,778 240,778 293,778 328,747 346,684 L 369,508 C 377,444 397,411 428,410 L 1163,1116 C 1174,1127 1196,1133 1229,1133 1271,1133 1292,1118 1292,1087 L 1292,965 C 1292,929 1282,901 1262,881 L 442,47 C 390,-6 338,-33 285,-33 Z"/>
  </g>
  <g id="bullet-char-template(9679)" transform="scale(0.00048828125,-0.00048828125)">
   <path d="M 813,0 C 632,0 489,54 383,161 276,268 223,411 223,592 223,773 276,916 383,1023 489,1130 632,1184 813,1184 992,1184 1136,1130 1245,1023 1353,916 1407,772 1407,592 1407,412 1353,268 1245,161 1136,54 992,0 813,0 Z"/>
  </g>
  <g id="bullet-char-template(8226)" transform="scale(0.00048828125,-0.00048828125)">
   <path d="M 346,457 C 273,457 209,483 155,535 101,586 74,649 74,723 74,796 101,859 155,911 209,963 273,989 346,989 419,989 480,963 531,910 582,859 608,796 608,723 608,648 583,586 532,535 482,483 420,457 346,457 Z"/>
  </g>
  <g id="bullet-char-template(8211)" transform="scale(0.00048828125,-0.00048828125)">
   <path d="M -4,459 L 1135,459 1135,606 -4,606 -4,459 Z"/>
  </g>
 </defs>
 <defs class="TextEmbeddedBitmaps"/>
 <g>
  <g id="id2" class="Master_Slide">
   <g id="bg-id2" class="Background"/>
   <g id="bo-id2" class="BackgroundObjects"/>
  </g>
 </g>
 <g class="SlideGroup">
  <g>
   <g id="id1" class="Slide" clip-path="url(#presentation_clip_path)">
    <g class="Page">
     <g class="Graphic">
      <g id="id3">
       <rect class="BoundingBox" stroke="none" fill="none" x="0" y="188" width="3728" height="2028"/>
       <path fill="rgb(255,255,255)" stroke="none" d="M 744,2001 C 479,2001 214,1601 214,1202 214,802 479,402 744,402 L 2983,402 C 3248,402 3514,802 3514,1202 3514,1601 3248,2001 2983,2001 L 744,2001 744,2001 Z M 214,402 L 214,402 214,402 Z M 3514,2002 L 3514,2002 3514,2002 Z"/>
       <path fill="none" stroke="rgb(0,0,0)" stroke-width="30" stroke-linejoin="round" d="M 744,2001 C 479,2001 214,1601 214,1202 214,802 479,402 744,402 L 2983,402 C 3248,402 3514,802 3514,1202 3514,1601 3248,2001 2983,2001 L 744,2001 744,2001 Z"/>
      </g>
     </g>
     <g class="com.sun.star.drawing.CustomShape">
      <g id="id4">
       <rect class="BoundingBox" stroke="none" fill="none" x="2603" y="192" width="1317" height="933"/>
       <path fill="rgb(255,51,51)" stroke="none" d="M 3011,849 L 3020,860 3031,872 3042,884 3053,894 3066,904 3078,913 3092,923 3105,931 3119,938 3133,945 3147,951 3162,957 3177,961 3192,965 3207,969 3223,971 3238,972 3254,973 3270,973 3286,973 3302,971 3317,968 3332,965 3348,961 3363,957 3378,951 3392,945 3406,938 3420,931 3433,922 3446,913 3459,904 3470,894 3482,884 3493,871 3504,861 3514,848 3522,835 3531,822 3539,808 3546,794 3552,780 3558,766 3563,750 3568,736 3571,720 3574,705 3575,689 3576,673 3577,658 3577,642 3575,626 3573,611 3571,595 3567,580 3563,565 3558,550 3552,536 3546,521 3539,507 3530,493 3522,481 3513,467 3503,455 3493,444 3482,432 3470,421 3458,412 3445,402 3432,393 3419,385 3405,377 3391,371 3377,365 3362,359 3347,355 3332,351 3317,347 3301,345 3285,343 3269,343 3254,343 3238,343 3222,345 3207,347 3192,351 3176,355 3161,359 3146,365 3132,371 3118,378 3104,385 3091,394 3078,403 3065,412 3053,422 3042,432 3031,445 3020,456 3010,468 3002,481 2993,494 2985,508 2853,437 2865,417 2877,396 2890,378 2905,360 2920,342 2937,326 2953,310 2972,295 2990,281 3009,268 3029,255 3049,245 3070,234 3092,225 3113,218 3135,211 3158,205 3181,201 3203,197 3226,195 3249,193 3273,193 3296,195 3319,197 3342,200 3365,204 3387,210 3409,217 3431,225 3452,234 3474,244 3494,255 3514,267 3532,280 3551,294 3569,309 3586,325 3602,341 3618,358 3632,376 3646,396 3658,414 3670,435 3681,456 3691,477 3699,498 3707,520 3712,543 3717,565 3722,588 3725,611 3727,635 3727,657 3726,681 3725,703 3722,727 3718,750 3713,773 3707,794 3700,816 3690,838 3681,859 3670,880 3659,900 3647,920 3633,939 3618,957 3603,974 3587,990 3570,1006 3552,1021 3534,1035 3515,1048 3495,1061 3474,1072 3454,1082 3432,1091 3410,1099 3388,1106 3366,1111 3343,1115 3320,1120 3297,1122 3274,1123 3251,1123 3227,1122 3205,1119 3182,1116 3159,1112 3136,1105 3115,1099 3093,1091 3071,1082 3050,1072 3030,1061 3010,1049 2990,1036 2973,1022 2954,1007 2938,991 2921,974 2906,957 2891,939 2799,1010 2835,742 3104,778 3011,849 Z M 3918,697 L 3918,697 Z M 2604,619 L 2604,619 Z"/>
       <path fill="none" stroke="rgb(0,0,0)" d="M 3011,849 L 3020,860 3031,872 3042,884 3053,894 3066,904 3078,913 3092,923 3105,931 3119,938 3133,945 3147,951 3162,957 3177,961 3192,965 3207,969 3223,971 3238,972 3254,973 3270,973 3286,973 3302,971 3317,968 3332,965 3348,961 3363,957 3378,951 3392,945 3406,938 3420,931 3433,922 3446,913 3459,904 3470,894 3482,884 3493,871 3504,861 3514,848 3522,835 3531,822 3539,808 3546,794 3552,780 3558,766 3563,750 3568,736 3571,720 3574,705 3575,689 3576,673 3577,658 3577,642 3575,626 3573,611 3571,595 3567,580 3563,565 3558,550 3552,536 3546,521 3539,507 3530,493 3522,481 3513,467 3503,455 3493,444 3482,432 3470,421 3458,412 3445,402 3432,393 3419,385 3405,377 3391,371 3377,365 3362,359 3347,355 3332,351 3317,347 3301,345 3285,343 3269,343 3254,343 3238,343 3222,345 3207,347 3192,351 3176,355 3161,359 3146,365 3132,371 3118,378 3104,385 3091,394 3078,403 3065,412 3053,422 3042,432 3031,445 3020,456 3010,468 3002,481 2993,494 2985,508 2853,437 2865,417 2877,396 2890,378 2905,360 2920,342 2937,326 2953,310 2972,295 2990,281 3009,268 3029,255 3049,245 3070,234 3092,225 3113,218 3135,211 3158,205 3181,201 3203,197 3226,195 3249,193 3273,193 3296,195 3319,197 3342,200 3365,204 3387,210 3409,217 3431,225 3452,234 3474,244 3494,255 3514,267 3532,280 3551,294 3569,309 3586,325 3602,341 3618,358 3632,376 3646,396 3658,414 3670,435 3681,456 3691,477 3699,498 3707,520 3712,543 3717,565 3722,588 3725,611 3727,635 3727,657 3726,681 3725,703 3722,727 3718,750 3713,773 3707,794 3700,816 3690,838 3681,859 3670,880 3659,900 3647,920 3633,939 3618,957 3603,974 3587,990 3570,1006 3552,1021 3534,1035 3515,1048 3495,1061 3474,1072 3454,1082 3432,1091 3410,1099 3388,1106 3366,1111 3343,1115 3320,1120 3297,1122 3274,1123 3251,1123 3227,1122 3205,1119 3182,1116 3159,1112 3136,1105 3115,1099 3093,1091 3071,1082 3050,1072 3030,1061 3010,1049 2990,1036 2973,1022 2954,1007 2938,991 2921,974 2906,957 2891,939 2799,1010 2835,742 3104,778 3011,849 Z"/>
       <path fill="none" stroke="rgb(0,0,0)" d="M 3918,697 L 3918,697 Z"/>
       <path fill="none" stroke="rgb(0,0,0)" d="M 2604,619 L 2604,619 Z"/>
      </g>
     </g>
    </g>
   </g>
  </g>
 </g>
</svg>