<?xml version="1.0" encoding="UTF-8"?>
<!DOCTYPE svg PUBLIC "-//W3C//DTD SVG 1.1//EN" "http://www.w3.org/Graphics/SVG/1.1/DTD/svg11.dtd">
<svg version="1.2" width="24.4mm" height="22.1mm" viewBox="0 0 2440 2210" preserveAspectRatio="xMidYMid" fill-rule="evenodd" stroke-width="28.222" stroke-linejoin="round" xmlns="http://www.w3.org/2000/svg" xmlns:ooo="http://xml.openoffice.org/svg/export" xmlns:xlink="http://www.w3.org/1999/xlink" xmlns:presentation="http://sun.com/xmlns/staroffice/presentation" xmlns:smil="http://www.w3.org/2001/SMIL20/" xmlns:anim="urn:oasis:names:tc:opendocument:xmlns:animation:1.0" xml:space="preserve">
 <defs class="ClipPathGroup">
  <clipPath id="presentation_clip_path" clipPathUnits="userSpaceOnUse">
   <rect x="0" y="0" width="2440" height="2210"/>
  </clipPath>
 </defs>
 <defs class="TextShapeIndex">
  <g ooo:slide="id1" ooo:id-list="id3 id4"/>
 </defs>
 <defs class="EmbeddedBulletChars">
  <g id="bullet-char-template(57356)" transform="scale(0.00048828125,-0.00048828125)">
   <path d="M 580,1141 L 1163,571 580,0 -4,571 580,1141 Z"/>
  </g>
  <g id="bullet-char-template(57354)" transform="scale(0.00048828125,-0.00048828125)">
   <path d="M 8,1128 L 1137,1128 1137,0 8,0 8,1128 Z"/>
  </g>
  <g id="bullet-char-template(10146)" transform="scale(0.00048828125,-0.00048828125)">
   <path d="M 174,0 L 602,739 174,1481 1456,739 174,0 Z M 1358,739 L 309,1346 659,739 1358,739 Z"/>
  </g>
  <g id="bullet-char-template(10132)" transform="scale(0.00048828125,-0.00048828125)">
   <path d="M 2015,739 L 1276,0 717,0 1260,543 174,543 174,936 1260,936 717,1481 1274,1481 2015,739 Z"/>
  </g>
  <g id="bullet-char-template(10007)" transform="scale(0.00048828125,-0.00048828125)">
   <path d="M 0,-2 C -7,14 -16,27 -25,37 L 356,567 C 262,823 215,952 215,954 215,979 228,992 255,992 264,992 276,990 289,987 310,991 331,999 354,1012 L 381,999 492,748 772,1049 836,1024 860,1049 C 881,1039 901,1025 922,1006 886,937 835,863 770,784 769,783 710,716 594,584 L 774,223 C 774,196 753,168 711,139 L 727,119 C 717,90 699,76 672,76 641,76 570,178 457,381 L 164,-76 C 142,-110 111,-127 72,-127 30,-127 9,-110 8,-76 1,-67 -2,-52 -2,-32 -2,-23 -1,-13 0,-2 Z"/>
  </g>
  <g id="bullet-char-template(10004)" transform="scale(0.00048828125,-0.00048828125)">
   <path d="M 285,-33 C 182,-33 111,30 74,156 52,228 41,333 41,471 41,549 55,616 82,672 116,743 169,778 240,778 293,778 328,747 346,684 L 369,508 C 377,444 397,411 428,410 L 1163,1116 C 1174,1127 1196,1133 1229,1133 1271,1133 1292,1118 1292,1087 L 1292,965 C 1292,929 1282,901 1262,881 L 442,47 C 390,-6 338,-33 285,-33 Z"/>
  </g>
  <g id="bullet-char-template(9679)" transform="scale(0.00048828125,-0.00048828125)">
   <path d="M 813,0 C 632,0 489,54 383,161 276,268 223,411 223,592 223,773 276,916 383,1023 489,1130 632,1184 813,1184 992,1184 1136,1130 1245,1023 1353,916 1407,772 1407,592 1407,412 1353,268 1245,161 1136,54 992,0 813,0 Z"/>
  </g>
  <g id="bullet-char-template(8226)" transform="scale(0.00048828125,-0.00048828125)">
   <path d="M 346,457 C 273,457 209,483 155,535 101,586 74,649 74,723 74,796 101,859 155,911 209,963 273,989 346,989 419,989 480,963 531,910 582,859 608,796 608,723 608,648 583,586 532,535 482,483 420,457 346,457 Z"/>
  </g>
  <g id="bullet-char-template(8211)" transform="scale(0.00048828125,-0.00048828125)">
   <path d="M -4,459 L 1135,459 1135,606 -4,606 -4,459 Z"/>
  </g>
 </defs>
 <defs class="TextEmbeddedBitmaps"/>
 <g>
  <g id="id2" class="Master_Slide">
   <g id="bg-id2" class="Background"/>
   <g id="bo-id2" class="BackgroundObjects"/>
  </g>
 </g>
 <g class="SlideGroup">
  <g>
   <g id="id1" class="Slide" clip-path="url(#presentation_clip_path)">
    <g class="Page">
     <g class="Graphic">
      <g id="id3">
       <rect class="BoundingBox" stroke="none" fill="none" x="100" y="1" width="2210" height="2210"/>
       <path fill="rgb(255,255,255)" stroke="none" d="M 1204,98 C 1774,98 2211,535 2211,1106 2211,1676 1774,2113 1204,2113 633,2113 196,1676 196,1106 196,535 633,98 1204,98 L 1204,98 Z M 196,98 L 196,98 196,98 Z M 2212,2114 L 2212,2114 2212,2114 Z"/>
       <path fill="none" stroke="rgb(0,0,0)" stroke-width="27" stroke-linejoin="round" d="M 1204,98 C 1774,98 2211,535 2211,1106 2211,1676 1774,2113 1204,2113 633,2113 196,1676 196,1106 196,535 633,98 1204,98 L 1204,98 Z"/>
      </g>
     </g>
     <g class="com.sun.star.drawing.CustomShape">
      <g id="id4">
       <rect class="BoundingBox" stroke="none" fill="none" x="1248" y="123" width="1241" height="923"/>
       <path fill="rgb(255,51,51)" stroke="none" d="M 1622,751 L 1631,763 1639,774 1650,786 1659,797 1671,806 1681,816 1694,825 1706,833 1718,841 1732,849 1745,854 1758,861 1772,866 1786,870 1801,874 1815,877 1830,879 1845,881 1859,881 1874,882 1889,881 1904,880 1918,878 1934,875 1947,872 1962,868 1975,862 1989,857 2003,850 2016,844 2029,836 2041,828 2053,818 2064,809 2075,799 2086,788 2096,777 2105,766 2113,754 2122,742 2130,729 2136,715 2142,702 2148,688 2153,675 2156,660 2160,646 2163,631 2165,617 2166,602 2166,587 2167,572 2166,557 2164,543 2161,528 2158,514 2155,500 2150,486 2145,471 2139,457 2132,444 2125,432 2117,419 2109,407 2100,395 2089,384 2079,373 2069,363 2058,353 2046,344 2034,336 2022,327 2008,321 1995,314 1982,308 1968,303 1953,298 1939,294 1925,291 1910,289 1896,287 1881,287 1866,286 1851,286 1836,288 1821,290 1807,293 1792,295 1778,300 1764,305 1751,311 1737,317 1724,324 1711,331 1698,340 1687,348 1675,357 1664,367 1654,378 1644,389 1635,400 1625,413 1617,425 1610,437 1603,451 1457,378 1469,357 1480,338 1493,319 1507,300 1521,283 1536,266 1553,250 1570,234 1587,220 1606,206 1626,194 1645,182 1665,172 1686,162 1707,154 1729,146 1751,140 1773,134 1796,130 1818,127 1841,125 1864,124 1886,125 1910,126 1932,128 1955,132 1978,137 2000,142 2021,149 2042,158 2064,167 2084,177 2104,188 2123,201 2142,214 2161,228 2177,243 2194,259 2210,276 2225,293 2239,310 2252,329 2265,349 2276,369 2286,389 2294,410 2303,432 2311,453 2316,475 2321,498 2324,520 2327,544 2329,567 2329,589 2328,612 2326,635 2323,657 2319,680 2313,702 2308,724 2300,746 2291,767 2281,788 2270,808 2259,828 2246,847 2233,865 2219,883 2204,900 2187,916 2170,931 2152,946 2134,960 2115,973 2095,985 2075,995 2055,1004 2034,1014 2012,1022 1990,1028 1967,1033 1945,1038 1922,1041 1899,1043 1877,1044 1854,1043 1831,1043 1808,1040 1785,1037 1764,1032 1741,1026 1720,1019 1698,1011 1677,1002 1656,992 1636,981 1616,969 1598,956 1580,942 1563,927 1546,911 1530,895 1514,878 1501,860 1488,841 1392,905 1445,633 1718,686 1622,751 Z M 2487,787 L 2487,787 Z M 1249,381 L 1249,381 Z"/>
       <path fill="none" stroke="rgb(0,0,0)" d="M 1622,751 L 1631,763 1639,774 1650,786 1659,797 1671,806 1681,816 1694,825 1706,833 1718,841 1732,849 1745,854 1758,861 1772,866 1786,870 1801,874 1815,877 1830,879 1845,881 1859,881 1874,882 1889,881 1904,880 1918,878 1934,875 1947,872 1962,868 1975,862 1989,857 2003,850 2016,844 2029,836 2041,828 2053,818 2064,809 2075,799 2086,788 2096,777 2105,766 2113,754 2122,742 2130,729 2136,715 2142,702 2148,688 2153,675 2156,660 2160,646 2163,631 2165,617 2166,602 2166,587 2167,572 2166,557 2164,543 2161,528 2158,514 2155,500 2150,486 2145,471 2139,457 2132,444 2125,432 2117,419 2109,407 2100,395 2089,384 2079,373 2069,363 2058,353 2046,344 2034,336 2022,327 2008,321 1995,314 1982,308 1968,303 1953,298 1939,294 1925,291 1910,289 1896,287 1881,287 1866,286 1851,286 1836,288 1821,290 1807,293 1792,295 1778,300 1764,305 1751,311 1737,317 1724,324 1711,331 1698,340 1687,348 1675,357 1664,367 1654,378 1644,389 1635,400 1625,413 1617,425 1610,437 1603,451 1457,378 1469,357 1480,338 1493,319 1507,300 1521,283 1536,266 1553,250 1570,234 1587,220 1606,206 1626,194 1645,182 1665,172 1686,162 1707,154 1729,146 1751,140 1773,134 1796,130 1818,127 1841,125 1864,124 1886,125 1910,126 1932,128 1955,132 1978,137 2000,142 2021,149 2042,158 2064,167 2084,177 2104,188 2123,201 2142,214 2161,228 2177,243 2194,259 2210,276 2225,293 2239,310 2252,329 2265,349 2276,369 2286,389 2294,410 2303,432 2311,453 2316,475 2321,498 2324,520 2327,544 2329,567 2329,589 2328,612 2326,635 2323,657 2319,680 2313,702 2308,724 2300,746 2291,767 2281,788 2270,808 2259,828 2246,847 2233,865 2219,883 2204,900 2187,916 2170,931 2152,946 2134,960 2115,973 2095,985 2075,995 2055,1004 2034,1014 2012,1022 1990,1028 1967,1033 1945,1038 1922,1041 1899,1043 1877,1044 1854,1043 1831,1043 1808,1040 1785,1037 1764,1032 1741,1026 1720,1019 1698,1011 1677,1002 1656,992 1636,981 1616,969 1598,956 1580,942 1563,927 1546,911 1530,895 1514,878 1501,860 1488,841 1392,905 1445,633 1718,686 1622,751 Z"/>
       <path fill="none" stroke="rgb(0,0,0)" d="M 2487,787 L 2487,787 Z"/>
       <path fill="none" stroke="rgb(0,0,0)" d="M 1249,381 L 1249,381 Z"/>
      </g>
     </g>
    </g>
   </g>
  </g>
 </g>
</svg>