<?xml version="1.0" encoding="UTF-8"?>
<!DOCTYPE svg PUBLIC "-//W3C//DTD SVG 1.1//EN" "http://www.w3.org/Graphics/SVG/1.1/DTD/svg11.dtd">
<svg version="1.2" width="44.2mm" height="22.6mm" viewBox="0 0 4420 2260" preserveAspectRatio="xMidYMid" fill-rule="evenodd" stroke-width="28.222" stroke-linejoin="round" xmlns="http://www.w3.org/2000/svg" xmlns:ooo="http://xml.openoffice.org/svg/export" xmlns:xlink="http://www.w3.org/1999/xlink" xmlns:presentation="http://sun.com/xmlns/staroffice/presentation" xmlns:smil="http://www.w3.org/2001/SMIL20/" xmlns:anim="urn:oasis:names:tc:opendocument:xmlns:animation:1.0" xml:space="preserve">
 <defs class="ClipPathGroup">
  <clipPath id="presentation_clip_path" clipPathUnits="userSpaceOnUse">
   <rect x="0" y="0" width="4420" height="2260"/>
  </clipPath>
 </defs>
 <defs class="TextShapeIndex">
  <g ooo:slide="id1" ooo:id-list="id3 id4"/>
 </defs>
 <defs class="EmbeddedBulletChars">
  <g id="bullet-char-template(57356)" transform="scale(0.00048828125,-0.00048828125)">
   <path d="M 580,1141 L 1163,571 580,0 -4,571 580,1141 Z"/>
  </g>
  <g id="bullet-char-template(57354)" transform="scale(0.00048828125,-0.00048828125)">
   <path d="M 8,1128 L 1137,1128 1137,0 8,0 8,1128 Z"/>
  </g>
  <g id="bullet-char-template(10146)" transform="scale(0.00048828125,-0.00048828125)">
   <path d="M 174,0 L 602,739 174,1481 1456,739 174,0 Z M 1358,739 L 309,1346 659,739 1358,739 Z"/>
  </g>
  <g id="bullet-char-template(10132)" transform="scale(0.00048828125,-0.00048828125)">
   <path d="M 2015,739 L 1276,0 717,0 1260,543 174,543 174,936 1260,936 717,1481 1274,1481 2015,739 Z"/>
  </g>
  <g id="bullet-char-template(10007)" transform="scale(0.00048828125,-0.00048828125)">
   <path d="M 0,-2 C -7,14 -16,27 -25,37 L 356,567 C 262,823 215,952 215,954 215,979 228,992 255,992 264,992 276,990 289,987 310,991 331,999 354,1012 L 381,999 492,748 772,1049 836,1024 860,1049 C 881,1039 901,1025 922,1006 886,937 835,863 770,784 769,783 710,716 594,584 L 774,223 C 774,196 753,168 711,139 L 727,119 C 717,90 699,76 672,76 641,76 570,178 457,381 L 164,-76 C 142,-110 111,-127 72,-127 30,-127 9,-110 8,-76 1,-67 -2,-52 -2,-32 -2,-23 -1,-13 0,-2 Z"/>
  </g>
  <g id="bullet-char-template(10004)" transform="scale(0.00048828125,-0.00048828125)">
   <path d="M 285,-33 C 182,-33 111,30 74,156 52,228 41,333 41,471 41,549 55,616 82,672 116,743 169,778 240,778 293,778 328,747 346,684 L 369,508 C 377,444 397,411 428,410 L 1163,1116 C 1174,1127 1196,1133 1229,1133 1271,1133 1292,1118 1292,1087 L 1292,965 C 1292,929 1282,901 1262,881 L 442,47 C 390,-6 338,-33 285,-33 Z"/>
  </g>
  <g id="bullet-char-template(9679)" transform="scale(0.00048828125,-0.00048828125)">
   <path d="M 813,0 C 632,0 489,54 383,161 276,268 223,411 223,592 223,773 276,916 383,1023 489,1130 632,1184 813,1184 992,1184 1136,1130 1245,1023 1353,916 1407,772 1407,592 1407,412 1353,268 1245,161 1136,54 992,0 813,0 Z"/>
  </g>
  <g id="bullet-char-template(8226)" transform="scale(0.00048828125,-0.00048828125)">
   <path d="M 346,457 C 273,457 209,483 155,535 101,586 74,649 74,723 74,796 101,859 155,911 209,963 273,989 346,989 419,989 480,963 531,910 582,859 608,796 608,723 608,648 583,586 532,535 482,483 420,457 346,457 Z"/>
  </g>
  <g id="bullet-char-template(8211)" transform="scale(0.00048828125,-0.00048828125)">
   <path d="M -4,459 L 1135,459 1135,606 -4,606 -4,459 Z"/>
  </g>
 </defs>
 <defs class="TextEmbeddedBitmaps"/>
 <g>
  <g id="id2" class="Master_Slide">
   <g id="bg-id2" class="Background"/>
   <g id="bo-id2" class="BackgroundObjects"/>
  </g>
 </g>
 <g class="SlideGroup">
  <g>
   <g id="id1" class="Slide" clip-path="url(#presentation_clip_path)">
    <g class="Page">
     <g class="Graphic">
      <g id="id3">
       <rect class="BoundingBox" stroke="none" fill="none" x="0" y="303" width="4428" height="2028"/>
       <path fill="rgb(255,255,255)" stroke="none" d="M 1214,517 L 4213,517 3213,2116 214,2116 1214,517 1214,517 Z M 214,517 L 214,517 214,517 Z M 4214,2117 L 4214,2117 4214,2117 Z"/>
       <path fill="none" stroke="rgb(0,0,0)" stroke-width="30" stroke-linejoin="round" d="M 1214,517 L 4213,517 3213,2116 214,2116 1214,517 1214,517 Z"/>
      </g>
     </g>
     <g class="Graphic">
      <g id="id4">
       <rect class="BoundingBox" stroke="none" fill="none" x="3059" y="206" width="1143" height="992"/>
       <path fill="rgb(95,211,95)" stroke="none" d="M 4172,381 C 4038,288 3974,207 3974,207 3725,354 3461,875 3461,875 3337,700 3213,652 3213,652 3157,727 3060,826 3060,826 3285,887 3474,1109 3474,1109 3882,468 4172,381 4172,381 L 4172,381 Z"/>
       <path fill="rgb(153,153,153)" fill-opacity="0.2" stroke="rgb(255,255,255)" stroke-opacity="0.2" d="M 3631,1173 L 3631,1173 C 3633,1174 3634,1175 3634,1176 3634,1180 3626,1183 3610,1186 3594,1189 3574,1191 3546,1193 3518,1195 3490,1196 3458,1196 3426,1196 3398,1195 3370,1193 3342,1191 3322,1189 3306,1186 3290,1183 3282,1180 3282,1176 3282,1173 3290,1169 3306,1166 3322,1163 3342,1161 3370,1159 3398,1157 3426,1157 3458,1157 3490,1157 3518,1157 3546,1159 3574,1161 3594,1163 3610,1166 3621,1168 3627,1170 3631,1173 Z"/>
       <path fill="rgb(95,211,95)" fill-opacity="0.278" stroke="rgb(255,255,255)" stroke-opacity="0.278" d="M 4200,381 C 4065,289 4001,208 4001,208 3752,355 3488,876 3488,876 3365,701 3240,653 3240,653 3184,727 3088,827 3088,827 3313,888 3501,1110 3501,1110 3910,469 4200,381 4200,381 L 4200,381 Z"/>
      </g>
     </g>
    </g>
   </g>
  </g>
 </g>
</svg>