<?xml version="1.0" encoding="UTF-8"?>
<!DOCTYPE svg PUBLIC "-//W3C//DTD SVG 1.1//EN" "http://www.w3.org/Graphics/SVG/1.1/DTD/svg11.dtd">
<svg version="1.2" width="35.3mm" height="25mm" viewBox="0 0 3530 2500" preserveAspectRatio="xMidYMid" fill-rule="evenodd" stroke-width="28.222" stroke-linejoin="round" xmlns="http://www.w3.org/2000/svg" xmlns:ooo="http://xml.openoffice.org/svg/export" xmlns:xlink="http://www.w3.org/1999/xlink" xmlns:presentation="http://sun.com/xmlns/staroffice/presentation" xmlns:smil="http://www.w3.org/2001/SMIL20/" xmlns:anim="urn:oasis:names:tc:opendocument:xmlns:animation:1.0" xml:space="preserve">
 <defs class="ClipPathGroup">
  <clipPath id="presentation_clip_path" clipPathUnits="userSpaceOnUse">
   <rect x="0" y="0" width="3530" height="2500"/>
  </clipPath>
 </defs>
 <defs class="TextShapeIndex">
  <g ooo:slide="id1" ooo:id-list="id3 id4"/>
 </defs>
 <defs class="EmbeddedBulletChars">
  <g id="bullet-char-template(57356)" transform="scale(0.00048828125,-0.00048828125)">
   <path d="M 580,1141 L 1163,571 580,0 -4,571 580,1141 Z"/>
  </g>
  <g id="bullet-char-template(57354)" transform="scale(0.00048828125,-0.00048828125)">
   <path d="M 8,1128 L 1137,1128 1137,0 8,0 8,1128 Z"/>
  </g>
  <g id="bullet-char-template(10146)" transform="scale(0.00048828125,-0.00048828125)">
   <path d="M 174,0 L 602,739 174,1481 1456,739 174,0 Z M 1358,739 L 309,1346 659,739 1358,739 Z"/>
  </g>
  <g id="bullet-char-template(10132)" transform="scale(0.00048828125,-0.00048828125)">
   <path d="M 2015,739 L 1276,0 717,0 1260,543 174,543 174,936 1260,936 717,1481 1274,1481 2015,739 Z"/>
  </g>
  <g id="bullet-char-template(10007)" transform="scale(0.00048828125,-0.00048828125)">
   <path d="M 0,-2 C -7,14 -16,27 -25,37 L 356,567 C 262,823 215,952 215,954 215,979 228,992 255,992 264,992 276,990 289,987 310,991 331,999 354,1012 L 381,999 492,748 772,1049 836,1024 860,1049 C 881,1039 901,1025 922,1006 886,937 835,863 770,784 769,783 710,716 594,584 L 774,223 C 774,196 753,168 711,139 L 727,119 C 717,90 699,76 672,76 641,76 570,178 457,381 L 164,-76 C 142,-110 111,-127 72,-127 30,-127 9,-110 8,-76 1,-67 -2,-52 -2,-32 -2,-23 -1,-13 0,-2 Z"/>
  </g>
  <g id="bullet-char-template(10004)" transform="scale(0.00048828125,-0.00048828125)">
   <path d="M 285,-33 C 182,-33 111,30 74,156 52,228 41,333 41,471 41,549 55,616 82,672 116,743 169,778 240,778 293,778 328,747 346,684 L 369,508 C 377,444 397,411 428,410 L 1163,1116 C 1174,1127 1196,1133 1229,1133 1271,1133 1292,1118 1292,1087 L 1292,965 C 1292,929 1282,901 1262,881 L 442,47 C 390,-6 338,-33 285,-33 Z"/>
  </g>
  <g id="bullet-char-template(9679)" transform="scale(0.00048828125,-0.00048828125)">
   <path d="M 813,0 C 632,0 489,54 383,161 276,268 223,411 223,592 223,773 276,916 383,1023 489,1130 632,1184 813,1184 992,1184 1136,1130 1245,1023 1353,916 1407,772 1407,592 1407,412 1353,268 1245,161 1136,54 992,0 813,0 Z"/>
  </g>
  <g id="bullet-char-template(8226)" transform="scale(0.00048828125,-0.00048828125)">
   <path d="M 346,457 C 273,457 209,483 155,535 101,586 74,649 74,723 74,796 101,859 155,911 209,963 273,989 346,989 419,989 480,963 531,910 582,859 608,796 608,723 608,648 583,586 532,535 482,483 420,457 346,457 Z"/>
  </g>
  <g id="bullet-char-template(8211)" transform="scale(0.00048828125,-0.00048828125)">
   <path d="M -4,459 L 1135,459 1135,606 -4,606 -4,459 Z"/>
  </g>
 </defs>
 <defs class="TextEmbeddedBitmaps"/>
 <g>
  <g id="id2" class="Master_Slide">
   <g id="bg-id2" class="Background"/>
   <g id="bo-id2" class="BackgroundObjects"/>
  </g>
 </g>
 <g class="SlideGroup">
  <g>
   <g id="id1" class="Slide" clip-path="url(#presentation_clip_path)">
    <g class="Page">
     <g class="Graphic">
      <g id="id3">
       <rect class="BoundingBox" stroke="none" fill="none" x="0" y="436" width="3528" height="2028"/>
       <path fill="rgb(255,255,255)" stroke="none" d="M 1771,2249 L 175,2249 175,649 3368,649 3368,2249 1771,2249 1771,2249 Z"/>
       <path fill="none" stroke="rgb(0,0,0)" stroke-width="30" stroke-linejoin="round" d="M 1771,2249 L 175,2249 175,649 3368,649 3368,2249 1771,2249 1771,2249 Z"/>
      </g>
     </g>
     <g class="com.sun.star.drawing.CustomShape">
      <g id="id4">
       <rect class="BoundingBox" stroke="none" fill="none" x="2328" y="117" width="1301" height="948"/>
       <path fill="rgb(255,51,51)" stroke="none" d="M 2802,839 L 2815,848 2828,855 2842,863 2856,870 2870,875 2885,880 2900,885 2915,888 2930,891 2945,893 2961,894 2976,894 2992,895 3007,894 3022,891 3038,889 3053,886 3068,882 3082,877 3097,872 3111,866 3125,858 3139,851 3152,843 3165,833 3177,825 3188,814 3199,803 3210,792 3220,781 3230,768 3239,756 3247,742 3255,729 3261,715 3268,701 3273,686 3278,672 3281,657 3285,642 3288,627 3289,611 3290,595 3290,580 3290,565 3288,549 3287,534 3284,519 3280,504 3276,489 3270,474 3264,460 3258,446 3251,432 3243,418 3235,406 3225,394 3215,382 3205,370 3194,359 3182,349 3171,338 3158,329 3146,321 3133,313 3119,305 3105,299 3091,293 3076,288 3060,284 3046,280 3031,277 3016,274 3000,274 2985,273 2969,273 2954,274 2938,275 2923,278 2908,280 2893,285 2878,290 2863,295 2849,302 2836,308 2822,316 2809,324 2796,333 2784,342 2772,352 2761,363 2750,374 2740,385 2730,398 2721,410 2713,424 2705,436 2698,450 2692,465 2686,479 2682,494 2678,509 2675,524 2671,539 2670,555 2514,540 2517,517 2521,494 2526,471 2532,448 2540,427 2548,405 2558,384 2567,363 2579,343 2591,324 2605,305 2619,287 2634,269 2651,253 2667,236 2685,222 2704,207 2722,194 2742,182 2762,171 2783,160 2805,152 2827,143 2849,136 2871,130 2894,126 2916,122 2940,120 2963,119 2986,118 3009,119 3032,121 3055,125 3078,129 3100,135 3123,141 3144,149 3166,158 3187,168 3208,178 3227,191 3247,203 3265,217 3283,231 3300,247 3317,263 3331,281 3347,299 3361,317 3373,337 3385,356 3396,377 3406,398 3414,420 3421,442 3428,464 3434,486 3438,509 3441,532 3443,555 3444,579 3443,602 3442,625 3439,648 3436,671 3431,693 3425,716 3418,737 3410,759 3401,781 3390,801 3379,822 3367,841 3354,860 3339,879 3324,897 3308,913 3292,929 3274,944 3255,958 3236,972 3217,984 3196,995 3176,1005 3155,1015 3132,1024 3112,1031 3089,1037 3066,1042 3043,1045 3020,1048 2997,1049 2973,1050 2951,1049 2928,1047 2904,1044 2882,1039 2859,1035 2837,1029 2815,1021 2794,1012 2773,1002 2752,991 2732,980 2713,967 2647,1063 2598,793 2868,744 2802,839 Z M 3627,470 L 3627,470 Z M 2329,698 L 2329,698 Z"/>
       <path fill="none" stroke="rgb(0,0,0)" d="M 2802,839 L 2815,848 2828,855 2842,863 2856,870 2870,875 2885,880 2900,885 2915,888 2930,891 2945,893 2961,894 2976,894 2992,895 3007,894 3022,891 3038,889 3053,886 3068,882 3082,877 3097,872 3111,866 3125,858 3139,851 3152,843 3165,833 3177,825 3188,814 3199,803 3210,792 3220,781 3230,768 3239,756 3247,742 3255,729 3261,715 3268,701 3273,686 3278,672 3281,657 3285,642 3288,627 3289,611 3290,595 3290,580 3290,565 3288,549 3287,534 3284,519 3280,504 3276,489 3270,474 3264,460 3258,446 3251,432 3243,418 3235,406 3225,394 3215,382 3205,370 3194,359 3182,349 3171,338 3158,329 3146,321 3133,313 3119,305 3105,299 3091,293 3076,288 3060,284 3046,280 3031,277 3016,274 3000,274 2985,273 2969,273 2954,274 2938,275 2923,278 2908,280 2893,285 2878,290 2863,295 2849,302 2836,308 2822,316 2809,324 2796,333 2784,342 2772,352 2761,363 2750,374 2740,385 2730,398 2721,410 2713,424 2705,436 2698,450 2692,465 2686,479 2682,494 2678,509 2675,524 2671,539 2670,555 2514,540 2517,517 2521,494 2526,471 2532,448 2540,427 2548,405 2558,384 2567,363 2579,343 2591,324 2605,305 2619,287 2634,269 2651,253 2667,236 2685,222 2704,207 2722,194 2742,182 2762,171 2783,160 2805,152 2827,143 2849,136 2871,130 2894,126 2916,122 2940,120 2963,119 2986,118 3009,119 3032,121 3055,125 3078,129 3100,135 3123,141 3144,149 3166,158 3187,168 3208,178 3227,191 3247,203 3265,217 3283,231 3300,247 3317,263 3331,281 3347,299 3361,317 3373,337 3385,356 3396,377 3406,398 3414,420 3421,442 3428,464 3434,486 3438,509 3441,532 3443,555 3444,579 3443,602 3442,625 3439,648 3436,671 3431,693 3425,716 3418,737 3410,759 3401,781 3390,801 3379,822 3367,841 3354,860 3339,879 3324,897 3308,913 3292,929 3274,944 3255,958 3236,972 3217,984 3196,995 3176,1005 3155,1015 3132,1024 3112,1031 3089,1037 3066,1042 3043,1045 3020,1048 2997,1049 2973,1050 2951,1049 2928,1047 2904,1044 2882,1039 2859,1035 2837,1029 2815,1021 2794,1012 2773,1002 2752,991 2732,980 2713,967 2647,1063 2598,793 2868,744 2802,839 Z"/>
       <path fill="none" stroke="rgb(0,0,0)" d="M 3627,470 L 3627,470 Z"/>
       <path fill="none" stroke="rgb(0,0,0)" d="M 2329,698 L 2329,698 Z"/>
      </g>
     </g>
    </g>
   </g>
  </g>
 </g>
</svg>