<?xml version="1.0" encoding="UTF-8"?>
<!DOCTYPE svg PUBLIC "-//W3C//DTD SVG 1.1//EN" "http://www.w3.org/Graphics/SVG/1.1/DTD/svg11.dtd">
<svg version="1.2" width="44.2mm" height="22.6mm" viewBox="0 0 4420 2260" preserveAspectRatio="xMidYMid" fill-rule="evenodd" stroke-width="28.222" stroke-linejoin="round" xmlns="http://www.w3.org/2000/svg" xmlns:ooo="http://xml.openoffice.org/svg/export" xmlns:xlink="http://www.w3.org/1999/xlink" xmlns:presentation="http://sun.com/xmlns/staroffice/presentation" xmlns:smil="http://www.w3.org/2001/SMIL20/" xmlns:anim="urn:oasis:names:tc:opendocument:xmlns:animation:1.0" xml:space="preserve">
 <defs class="ClipPathGroup">
  <clipPath id="presentation_clip_path" clipPathUnits="userSpaceOnUse">
   <rect x="0" y="0" width="4420" height="2260"/>
  </clipPath>
 </defs>
 <defs class="TextShapeIndex">
  <g ooo:slide="id1" ooo:id-list="id3 id4"/>
 </defs>
 <defs class="EmbeddedBulletChars">
  <g id="bullet-char-template(57356)" transform="scale(0.00048828125,-0.00048828125)">
   <path d="M 580,1141 L 1163,571 580,0 -4,571 580,1141 Z"/>
  </g>
  <g id="bullet-char-template(57354)" transform="scale(0.00048828125,-0.00048828125)">
   <path d="M 8,1128 L 1137,1128 1137,0 8,0 8,1128 Z"/>
  </g>
  <g id="bullet-char-template(10146)" transform="scale(0.00048828125,-0.00048828125)">
   <path d="M 174,0 L 602,739 174,1481 1456,739 174,0 Z M 1358,739 L 309,1346 659,739 1358,739 Z"/>
  </g>
  <g id="bullet-char-template(10132)" transform="scale(0.00048828125,-0.00048828125)">
   <path d="M 2015,739 L 1276,0 717,0 1260,543 174,543 174,936 1260,936 717,1481 1274,1481 2015,739 Z"/>
  </g>
  <g id="bullet-char-template(10007)" transform="scale(0.00048828125,-0.00048828125)">
   <path d="M 0,-2 C -7,14 -16,27 -25,37 L 356,567 C 262,823 215,952 215,954 215,979 228,992 255,992 264,992 276,990 289,987 310,991 331,999 354,1012 L 381,999 492,748 772,1049 836,1024 860,1049 C 881,1039 901,1025 922,1006 886,937 835,863 770,784 769,783 710,716 594,584 L 774,223 C 774,196 753,168 711,139 L 727,119 C 717,90 699,76 672,76 641,76 570,178 457,381 L 164,-76 C 142,-110 111,-127 72,-127 30,-127 9,-110 8,-76 1,-67 -2,-52 -2,-32 -2,-23 -1,-13 0,-2 Z"/>
  </g>
  <g id="bullet-char-template(10004)" transform="scale(0.00048828125,-0.00048828125)">
   <path d="M 285,-33 C 182,-33 111,30 74,156 52,228 41,333 41,471 41,549 55,616 82,672 116,743 169,778 240,778 293,778 328,747 346,684 L 369,508 C 377,444 397,411 428,410 L 1163,1116 C 1174,1127 1196,1133 1229,1133 1271,1133 1292,1118 1292,1087 L 1292,965 C 1292,929 1282,901 1262,881 L 442,47 C 390,-6 338,-33 285,-33 Z"/>
  </g>
  <g id="bullet-char-template(9679)" transform="scale(0.00048828125,-0.00048828125)">
   <path d="M 813,0 C 632,0 489,54 383,161 276,268 223,411 223,592 223,773 276,916 383,1023 489,1130 632,1184 813,1184 992,1184 1136,1130 1245,1023 1353,916 1407,772 1407,592 1407,412 1353,268 1245,161 1136,54 992,0 813,0 Z"/>
  </g>
  <g id="bullet-char-template(8226)" transform="scale(0.00048828125,-0.00048828125)">
   <path d="M 346,457 C 273,457 209,483 155,535 101,586 74,649 74,723 74,796 101,859 155,911 209,963 273,989 346,989 419,989 480,963 531,910 582,859 608,796 608,723 608,648 583,586 532,535 482,483 420,457 346,457 Z"/>
  </g>
  <g id="bullet-char-template(8211)" transform="scale(0.00048828125,-0.00048828125)">
   <path d="M -4,459 L 1135,459 1135,606 -4,606 -4,459 Z"/>
  </g>
 </defs>
 <defs class="TextEmbeddedBitmaps"/>
 <g>
  <g id="id2" class="Master_Slide">
   <g id="bg-id2" class="Background"/>
   <g id="bo-id2" class="BackgroundObjects"/>
  </g>
 </g>
 <g class="SlideGroup">
  <g>
   <g id="id1" class="Slide" clip-path="url(#presentation_clip_path)">
    <g class="Page">
     <g class="Graphic">
      <g id="id3">
       <rect class="BoundingBox" stroke="none" fill="none" x="0" y="303" width="4428" height="2028"/>
       <path fill="rgb(255,255,255)" stroke="none" d="M 1214,517 L 4213,517 3213,2116 214,2116 1214,517 1214,517 Z M 214,517 L 214,517 214,517 Z M 4214,2117 L 4214,2117 4214,2117 Z"/>
       <path fill="none" stroke="rgb(0,0,0)" stroke-width="30" stroke-linejoin="round" d="M 1214,517 L 4213,517 3213,2116 214,2116 1214,517 1214,517 Z"/>
      </g>
     </g>
     <g class="com.sun.star.drawing.CustomShape">
      <g id="id4">
       <rect class="BoundingBox" stroke="none" fill="none" x="2869" y="137" width="1317" height="933"/>
       <path fill="rgb(255,51,51)" stroke="none" d="M 3277,794 L 3286,805 3297,817 3308,829 3319,839 3332,849 3344,858 3358,868 3371,876 3385,883 3399,890 3413,896 3428,902 3443,906 3458,910 3473,914 3489,916 3504,917 3520,918 3536,918 3552,918 3568,916 3583,913 3598,910 3614,906 3629,902 3644,896 3658,890 3672,883 3686,876 3699,867 3712,858 3725,849 3736,839 3748,829 3759,816 3770,806 3780,793 3788,780 3797,767 3805,753 3812,739 3818,725 3824,711 3829,695 3834,681 3837,665 3840,650 3841,634 3842,618 3843,603 3843,587 3841,571 3839,556 3837,540 3833,525 3829,510 3824,495 3818,481 3812,466 3805,452 3796,438 3788,426 3779,412 3769,400 3759,389 3748,377 3736,366 3724,357 3711,347 3698,338 3685,330 3671,322 3657,316 3643,310 3628,304 3613,300 3598,296 3583,292 3567,290 3551,288 3535,288 3520,288 3504,288 3488,290 3473,292 3458,296 3442,300 3427,304 3412,310 3398,316 3384,323 3370,330 3357,339 3344,348 3331,357 3319,367 3308,377 3297,390 3286,401 3276,413 3268,426 3259,439 3251,453 3119,382 3131,362 3143,341 3156,323 3171,305 3186,287 3203,271 3219,255 3238,240 3256,226 3275,213 3295,200 3315,190 3336,179 3358,170 3379,163 3401,156 3424,150 3447,146 3469,142 3492,140 3515,138 3539,138 3562,140 3585,142 3608,145 3631,149 3653,155 3675,162 3697,170 3718,179 3740,189 3760,200 3780,212 3798,225 3817,239 3835,254 3852,270 3868,286 3884,303 3898,321 3912,341 3924,359 3936,380 3947,401 3957,422 3965,443 3973,465 3978,488 3983,510 3988,533 3991,556 3993,580 3993,602 3992,626 3991,648 3988,672 3984,695 3979,718 3973,739 3966,761 3956,783 3947,804 3936,825 3925,845 3913,865 3899,884 3884,902 3869,919 3853,935 3836,951 3818,966 3800,980 3781,993 3761,1006 3740,1017 3720,1027 3698,1036 3676,1044 3654,1051 3632,1056 3609,1060 3586,1065 3563,1067 3540,1068 3517,1068 3493,1067 3471,1064 3448,1061 3425,1057 3402,1050 3381,1044 3359,1036 3337,1027 3316,1017 3296,1006 3276,994 3256,981 3239,967 3220,952 3204,936 3187,919 3172,902 3157,884 3065,955 3101,687 3370,723 3277,794 Z M 4184,642 L 4184,642 Z M 2870,564 L 2870,564 Z"/>
       <path fill="none" stroke="rgb(0,0,0)" d="M 3277,794 L 3286,805 3297,817 3308,829 3319,839 3332,849 3344,858 3358,868 3371,876 3385,883 3399,890 3413,896 3428,902 3443,906 3458,910 3473,914 3489,916 3504,917 3520,918 3536,918 3552,918 3568,916 3583,913 3598,910 3614,906 3629,902 3644,896 3658,890 3672,883 3686,876 3699,867 3712,858 3725,849 3736,839 3748,829 3759,816 3770,806 3780,793 3788,780 3797,767 3805,753 3812,739 3818,725 3824,711 3829,695 3834,681 3837,665 3840,650 3841,634 3842,618 3843,603 3843,587 3841,571 3839,556 3837,540 3833,525 3829,510 3824,495 3818,481 3812,466 3805,452 3796,438 3788,426 3779,412 3769,400 3759,389 3748,377 3736,366 3724,357 3711,347 3698,338 3685,330 3671,322 3657,316 3643,310 3628,304 3613,300 3598,296 3583,292 3567,290 3551,288 3535,288 3520,288 3504,288 3488,290 3473,292 3458,296 3442,300 3427,304 3412,310 3398,316 3384,323 3370,330 3357,339 3344,348 3331,357 3319,367 3308,377 3297,390 3286,401 3276,413 3268,426 3259,439 3251,453 3119,382 3131,362 3143,341 3156,323 3171,305 3186,287 3203,271 3219,255 3238,240 3256,226 3275,213 3295,200 3315,190 3336,179 3358,170 3379,163 3401,156 3424,150 3447,146 3469,142 3492,140 3515,138 3539,138 3562,140 3585,142 3608,145 3631,149 3653,155 3675,162 3697,170 3718,179 3740,189 3760,200 3780,212 3798,225 3817,239 3835,254 3852,270 3868,286 3884,303 3898,321 3912,341 3924,359 3936,380 3947,401 3957,422 3965,443 3973,465 3978,488 3983,510 3988,533 3991,556 3993,580 3993,602 3992,626 3991,648 3988,672 3984,695 3979,718 3973,739 3966,761 3956,783 3947,804 3936,825 3925,845 3913,865 3899,884 3884,902 3869,919 3853,935 3836,951 3818,966 3800,980 3781,993 3761,1006 3740,1017 3720,1027 3698,1036 3676,1044 3654,1051 3632,1056 3609,1060 3586,1065 3563,1067 3540,1068 3517,1068 3493,1067 3471,1064 3448,1061 3425,1057 3402,1050 3381,1044 3359,1036 3337,1027 3316,1017 3296,1006 3276,994 3256,981 3239,967 3220,952 3204,936 3187,919 3172,902 3157,884 3065,955 3101,687 3370,723 3277,794 Z"/>
       <path fill="none" stroke="rgb(0,0,0)" d="M 4184,642 L 4184,642 Z"/>
       <path fill="none" stroke="rgb(0,0,0)" d="M 2870,564 L 2870,564 Z"/>
      </g>
     </g>
    </g>
   </g>
  </g>
 </g>
</svg>