<?xml version="1.0" encoding="UTF-8" standalone="no"?>
<svg
   xmlns:dc="http://purl.org/dc/elements/1.1/"
   xmlns:cc="http://creativecommons.org/ns#"
   xmlns:rdf="http://www.w3.org/1999/02/22-rdf-syntax-ns#"
   xmlns:svg="http://www.w3.org/2000/svg"
   xmlns="http://www.w3.org/2000/svg"
   xmlns:xlink="http://www.w3.org/1999/xlink"
   xmlns:sodipodi="http://sodipodi.sourceforge.net/DTD/sodipodi-0.dtd"
   xmlns:inkscape="http://www.inkscape.org/namespaces/inkscape"
   version="1.0"
   width="50"
   height="50"
   id="svg2"
   inkscape:version="0.48.4 r9939"
   sodipodi:docname="Unit2.svg">
  <metadata
     id="metadata97">
    <rdf:RDF>
      <cc:Work
         rdf:about="">
        <dc:format>image/svg+xml</dc:format>
        <dc:type
           rdf:resource="http://purl.org/dc/dcmitype/StillImage" />
        <dc:title></dc:title>
      </cc:Work>
    </rdf:RDF>
  </metadata>
  <sodipodi:namedview
     pagecolor="#ffffff"
     bordercolor="#666666"
     borderopacity="1"
     objecttolerance="10"
     gridtolerance="10"
     guidetolerance="10"
     inkscape:pageopacity="0"
     inkscape:pageshadow="2"
     inkscape:window-width="1680"
     inkscape:window-height="984"
     id="namedview95"
     showgrid="false"
     borderlayer="true"
     inkscape:zoom="4.9166667"
     inkscape:cx="-11.210805"
     inkscape:cy="25.21875"
     inkscape:window-x="0"
     inkscape:window-y="27"
     inkscape:window-maximized="1"
     inkscape:current-layer="svg2"
     fit-margin-top="0"
     fit-margin-left="0"
     fit-margin-right="0"
     fit-margin-bottom="0" />
  <defs
     id="defs4">
    <linearGradient
       id="lg1">
      <stop
         style="stop-color:#8f5902;stop-opacity:1"
         offset="0"
         id="stop5" />
      <stop
         style="stop-color:#c4a000;stop-opacity:1"
         offset="1"
         id="stop7" />
    </linearGradient>
    <linearGradient
       id="lg2">
      <stop
         style="stop-color:#ffffff;stop-opacity:1"
         offset="0"
         id="stop10" />
      <stop
         style="stop-color:#ffffff;stop-opacity:1"
         offset="0.0727"
         id="stop12" />
      <stop
         style="stop-color:#c17d11;stop-opacity:1"
         offset="0.727"
         id="stop14" />
      <stop
         style="stop-color:#e9b96e;stop-opacity:1"
         offset="1"
         id="stop16" />
    </linearGradient>
    <linearGradient
       id="lg3">
      <stop
         style="stop-color:#c4a000;stop-opacity:1"
         offset="0"
         id="stop19" />
      <stop
         style="stop-color:#fce94f;stop-opacity:1"
         offset="0.618"
         id="stop21" />
      <stop
         style="stop-color:#c4a000;stop-opacity:1"
         offset="1"
         id="stop23" />
    </linearGradient>
    <linearGradient
       id="lg4">
      <stop
         style="stop-color:#ffffff;stop-opacity:1"
         offset="0"
         id="stop26" />
      <stop
         style="stop-color:#ffffff;stop-opacity:0"
         offset="1"
         id="stop28" />
    </linearGradient>
    <linearGradient
       id="lg5">
      <stop
         style="stop-color:#000000;stop-opacity:1"
         offset="0"
         id="stop31" />
      <stop
         style="stop-color:#000000;stop-opacity:0"
         offset="1"
         id="stop33" />
    </linearGradient>
    <linearGradient
       id="lg6">
      <stop
         style="stop-color:#ffffff;stop-opacity:1"
         offset="0"
         id="stop36" />
      <stop
         style="stop-color:#ffffff;stop-opacity:0"
         offset="1"
         id="stop38" />
    </linearGradient>
    <linearGradient
       id="lg7">
      <stop
         style="stop-color:#ffffff;stop-opacity:1"
         offset="0"
         id="stop41" />
      <stop
         style="stop-color:#ffffff;stop-opacity:0"
         offset="1"
         id="stop43" />
    </linearGradient>
    <linearGradient
       id="lg8">
      <stop
         style="stop-color:#d3bc00;stop-opacity:1"
         offset="0"
         id="stop46" />
      <stop
         style="stop-color:#fdf188;stop-opacity:1"
         offset="1"
         id="stop48" />
    </linearGradient>
    <linearGradient
       id="lg9">
      <stop
         style="stop-color:#ffffff;stop-opacity:1"
         offset="0"
         id="stop51" />
      <stop
         style="stop-color:#ffffff;stop-opacity:0"
         offset="1"
         id="stop53" />
    </linearGradient>
    <linearGradient
       x1="18.870001"
       y1="39.25"
       x2="42.268871"
       y2="39.25"
       id="lg62"
       xlink:href="#lg6"
       gradientUnits="userSpaceOnUse"
       gradientTransform="matrix(0.852084,0,0,0.83783,4.2375,3.57755)" />
    <linearGradient
       x1="45.631165"
       y1="17.859573"
       x2="6.12321"
       y2="17.859573"
       id="lg32"
       xlink:href="#lg3"
       gradientUnits="userSpaceOnUse"
       gradientTransform="matrix(0.85208,0,0,0.83441,4.2375,3.71258)" />
    <linearGradient
       x1="18.870001"
       y1="39.25"
       x2="42.268871"
       y2="39.25"
       id="lg63"
       xlink:href="#lg6"
       gradientUnits="userSpaceOnUse"
       gradientTransform="matrix(0.788968,0,0,0.838743,5.75221,3.52435)" />
    <linearGradient
       x1="45.631165"
       y1="17.859573"
       x2="6.1232162"
       y2="17.859573"
       id="lg33"
       xlink:href="#lg3"
       gradientUnits="userSpaceOnUse"
       gradientTransform="matrix(0.79334,0,0,0.83441,5.6875,3.71258)" />
    <linearGradient
       x1="10.8952"
       y1="8.661705"
       x2="38.514122"
       y2="23.9629"
       id="lg64"
       xlink:href="#lg6"
       gradientUnits="userSpaceOnUse"
       gradientTransform="matrix(0.8521,0,0,0.83441,4.23722,3.69735)" />
    <linearGradient
       x1="16.205299"
       y1="1003.1057"
       x2="21"
       y2="1018.3622"
       id="lg92"
       xlink:href="#lg9"
       gradientUnits="userSpaceOnUse"
       gradientTransform="matrix(0.85294,0,0,0.83514,7.62874,-835.93695)" />
    <radialGradient
       cx="16.686159"
       cy="13.116223"
       r="17.011629"
       fx="16.686159"
       fy="13.116223"
       id="rg1"
       xlink:href="#lg2"
       gradientUnits="userSpaceOnUse"
       gradientTransform="matrix(-0.4474,1.635,-1.586,-0.4161,52.955461,-21.16551)" />
    <radialGradient
       cx="31.578047"
       cy="1008.6027"
       r="15"
       fx="31.578047"
       fy="1008.6027"
       id="rg2"
       xlink:href="#lg1"
       gradientUnits="userSpaceOnUse"
       gradientTransform="matrix(0,0.32841,-1.19084,0,1225.7623,4.4977)" />
    <radialGradient
       cx="18.033701"
       cy="27.857864"
       r="15.44688"
       fx="18.033707"
       fy="27.857864"
       id="rg3"
       xlink:href="#lg4"
       gradientUnits="userSpaceOnUse"
       gradientTransform="matrix(0.9421,-0.187,0.0411,0.22633,3.09523,40.30335)" />
    <linearGradient
       x1="18.247496"
       y1="16.375"
       x2="46.327831"
       y2="16.375"
       id="lg72"
       xlink:href="#lg7"
       gradientUnits="userSpaceOnUse"
       gradientTransform="matrix(0.8,0,0,0.835,5.5185,28.74678)" />
    <linearGradient
       x1="26.965128"
       y1="10.0805"
       x2="15.96048"
       y2="20.609072"
       id="lg82"
       xlink:href="#lg8"
       gradientUnits="userSpaceOnUse"
       gradientTransform="matrix(0.773,0,0,0.69595,6.1375,30.06905)" />
    <linearGradient
       x1="43.299999"
       y1="11.686158"
       x2="5.2540002"
       y2="11.686158"
       id="lg34"
       xlink:href="#lg3"
       gradientUnits="userSpaceOnUse"
       gradientTransform="matrix(0.8,0,0,0.835,5.5185,28.74678)" />
    <radialGradient
       cx="24"
       cy="18.467501"
       r="14"
       fx="24"
       fy="18.467501"
       id="rg4"
       xlink:href="#lg5"
       gradientUnits="userSpaceOnUse"
       gradientTransform="matrix(0.8,0,0,0.2536,5.5185,32.20585)" />
    <radialGradient
       cx="24"
       cy="18.467501"
       r="14"
       fx="24"
       fy="18.467501"
       id="rg5"
       xlink:href="#lg5"
       gradientUnits="userSpaceOnUse"
       gradientTransform="matrix(1.036,0,0,0.3195,-0.16964,38.40892)" />
  </defs>
  <path
     d="M 23.845981,39.837869 C 17.960759,39.91846 12.882793,40.8449 10.1875,42.159688 l 0,4.299782 c 2.8246,1.377914 8.255,2.32178 14.5,2.32178 6.245,0 11.6754,-0.944 14.5,-2.32178 l 0,-4.299782 c -2.824588,-1.378438 -8.255124,-2.321819 -14.5,-2.321819 -0.285858,0 -0.559203,-0.0039 -0.841519,0 z"
     style="opacity:0.55;fill:url(#rg5)"
     id="path69"
     inkscape:connector-curvature="0" />
  <path
     d="m 24.039214,33.340029 c -4.538658,0.06397 -8.454764,0.799308 -10.533363,1.842894 l 0,3.412866 c 2.181649,1.093694 6.366316,1.842894 11.181649,1.842894 4.81671,0 9,-0.7492 11.183028,-1.842894 l 0,-3.412866 C 33.6875,34.089229 29.504211,33.340029 24.6875,33.340029 c -0.219762,0 -0.430564,-0.0031 -0.648286,0 z"
     style="opacity:0.55;fill:url(#rg4)"
     id="path71"
     inkscape:connector-curvature="0" />
  <path
     d="m 23.425525,34.182764 c -6.24181,0.256721 -11.119384,2.398486 -11.119384,4.991189 l 0,2.508665 c 0,2.765886 5.5332,5.017329 12.368754,5.017329 6.835553,0 12.39374,-2.251443 12.39374,-5.017329 l 0,-2.508665 c 0,-2.765886 -5.558187,-4.991189 -12.39374,-4.991189 -0.427222,0 -0.833249,-0.01712 -1.24937,-0.0015 l 0,0.0015 z"
     style="fill:url(#lg34);stroke:#c4a000;stroke-width:0.81999999;stroke-linecap:round"
     id="path73"
     inkscape:connector-curvature="0" />
  <path
     d="m 36.669269,38.91598 c 0,2.304975 -5.367523,4.02811 -11.981769,4.02811 -6.612864,0 -11.980387,-1.870704 -11.980387,-4.175679 0,-2.304974 5.367523,-4.175679 11.980387,-4.175679 6.614246,0 11.981769,2.533468 11.981769,4.323248 z"
     style="fill:url(#lg82)"
     id="path75"
     inkscape:connector-curvature="0" />
  <path
     d="m 23.513805,35.0103 c -5.842097,0.223316 -10.40732,2.085668 -10.40732,4.34095 l 0,2.181711 c 0,2.405442 5.178863,4.363501 11.581015,4.363501 6.393482,0 11.595733,-1.958059 11.595733,-4.363501 l 0,-2.181711 c 0,-2.405606 -5.195733,-4.34095 -11.595733,-4.34095 -0.4042,0 -0.784224,-0.01487 -1.173695,0 z"
     style="opacity:0.55;fill:none;stroke:url(#lg72);stroke-width:0.81999999;stroke-linecap:round"
     id="path77"
     inkscape:connector-curvature="0" />
  <path
     d="m 36.295666,38.496505 c 0,2.386588 -5.191076,4.3213 -11.594592,4.3213 -6.403574,0 -11.594592,-1.934712 -11.594592,-4.3213 0,-2.386589 5.191018,-4.315255 11.594592,-4.315255 6.403516,0 11.594592,1.928666 11.594592,4.315255 l 0,0 z"
     style="fill:none;stroke:url(#rg3);stroke-width:0.81999999;stroke-linecap:round"
     id="path79"
     inkscape:connector-curvature="0" />
  <path
     d="m 37.057229,18.28125 c 0,9.41919 -5.541611,17.068366 -12.369729,17.068366 -6.828,0 -12.369605,-7.649176 -12.369605,-17.068366 0,-9.430827 5.541605,-17.08 12.369605,-17.08 6.828118,0 12.369729,7.649173 12.369729,17.074182 l 0,0.0058 z"
     style="fill:url(#rg1);stroke:url(#rg2);stroke-width:0.81999999;stroke-linecap:round"
     id="path81"
     inkscape:connector-curvature="0" />
  <path
     d="m 24.6875,3.34825 c -2.580233,2e-4 -5.022144,1.433 -6.95674,4.0976 -1.934596,2.6694 -3.615738,6.538737 -1.57261,9.59333 2.951097,5.088984 12.442785,-2.655982 18.711397,1.237337 0,-4.301617 -1.290585,-8.161267 -3.225184,-10.830667 -1.934598,-2.6646 -4.376514,-4.0976 -6.956863,-4.0976 l 0,0 z"
     style="fill:url(#lg92)"
     id="path83"
     inkscape:connector-curvature="0" />
  <path
     d="m 24.6875,2.04325 c -6.35,0 -11.5,7.1895 -11.514644,16.076596 -0.426471,1.424741 4.691176,3.512581 11.514644,3.512581 6.823591,0 11.941239,-2.08784 11.514768,-3.512581 C 36.192059,9.23625 31.038542,2.04325 24.6875,2.04325 z"
     style="opacity:0.70999995;fill:none;stroke:url(#lg64);stroke-width:0.81999999;stroke-linecap:round"
     id="path85"
     inkscape:connector-curvature="0" />
  <path
     d="m 13.172793,24.972887 c 0,5.677169 0,10.132363 0,11.692068 0,2.307564 5.121004,4.175679 11.489953,4.175679 6.368949,-8.4e-5 11.539583,-1.868032 11.539584,-4.175679 -1e-6,-1.512013 -1e-6,-6.019325 0,-11.692068 -1e-6,2.309651 -5.16433,4.175595 -11.539584,4.175679 -6.375246,0 -11.489953,-1.866028 -11.489953,-4.175679 z"
     style="fill:url(#lg33);stroke:#c4a000;stroke-width:0.81999999;stroke-linecap:round"
     id="path87"
     inkscape:connector-curvature="0" />
  <path
     d="m 14.050512,27.515541 c -0.0082,6.188106 -0.02468,9.092792 -0.02468,9.131876 0,1.677454 5.068418,3.357914 10.636933,3.357914 5.752599,0 10.686293,-1.68046 10.686293,-3.357914 0,-0.02764 5.23e-4,-3.019016 0,-9.169039 -2.053901,1.484286 -5.844275,2.464903 -10.686293,2.453211 C 19.8875,29.920148 16.061837,29.00083 14.0505,27.51554 l 1.2e-5,10e-7 z"
     style="opacity:0.70999995;fill:none;stroke:url(#lg63);stroke-width:0.81999999;stroke-linecap:round"
     id="path89"
     inkscape:connector-curvature="0" />
  <path
     d="m 12.320111,18.291717 c 0,5.677169 0,13.472745 0,15.032533 0,2.307475 5.500219,4.17559 12.340796,4.17559 6.840579,-8.3e-5 12.394104,-1.868032 12.394105,-4.17559 -10e-7,-1.512102 -10e-7,-9.35979 0,-15.032533 -10e-7,2.309651 -5.546755,4.175512 -12.394105,4.175595 -6.847348,0 -12.340796,-1.865944 -12.340797,-4.175595 l 1e-6,0 z"
     style="fill:url(#lg32);stroke:#c4a000;stroke-width:0.81999999;stroke-linecap:round"
     id="path91"
     inkscape:connector-curvature="0" />
  <path
     d="m 13.1996,20.834288 c -0.0083,5.792168 -0.02466,11.325527 -0.02665,12.072389 -1.35e-4,0.05011 0,0.40145 0,0.403873 0,1.67553 5.47388,3.35424 11.48786,3.35424 6.212796,-2e-6 11.541174,-1.67871 11.541174,-3.35424 0,-0.02764 5.66e-4,-6.37 0,-12.5133 -2.218184,1.482741 -6.311804,2.4622 -11.541184,2.45058 -5.156475,-0.01152 -9.28897,-0.929757 -11.461197,-2.413542 l -3e-6,0 z"
     style="opacity:0.70999995;fill:none;stroke:url(#lg62);stroke-width:0.81999999;stroke-linecap:round"
     id="path93"
     inkscape:connector-curvature="0" />
  <rect
     id="rect3880"
     width="48.966724"
     height="48.97105"
     x="0.50922275"
     y="0.49911451"
     style="fill:none;stroke:#000000;stroke-width:1.03111029;stroke-opacity:1" />
</svg>
