<?xml version="1.0" encoding="UTF-8"?>
<!DOCTYPE svg PUBLIC "-//W3C//DTD SVG 1.1//EN" "http://www.w3.org/Graphics/SVG/1.1/DTD/svg11.dtd">
<svg version="1.2" width="24.4mm" height="22.1mm" viewBox="0 0 2440 2210" preserveAspectRatio="xMidYMid" fill-rule="evenodd" stroke-width="28.222" stroke-linejoin="round" xmlns="http://www.w3.org/2000/svg" xmlns:ooo="http://xml.openoffice.org/svg/export" xmlns:xlink="http://www.w3.org/1999/xlink" xmlns:presentation="http://sun.com/xmlns/staroffice/presentation" xmlns:smil="http://www.w3.org/2001/SMIL20/" xmlns:anim="urn:oasis:names:tc:opendocument:xmlns:animation:1.0" xml:space="preserve">
 <defs class="ClipPathGroup">
  <clipPath id="presentation_clip_path" clipPathUnits="userSpaceOnUse">
   <rect x="0" y="0" width="2440" height="2210"/>
  </clipPath>
 </defs>
 <defs class="TextShapeIndex">
  <g ooo:slide="id1" ooo:id-list="id3 id4"/>
 </defs>
 <defs class="EmbeddedBulletChars">
  <g id="bullet-char-template(57356)" transform="scale(0.00048828125,-0.00048828125)">
   <path d="M 580,1141 L 1163,571 580,0 -4,571 580,1141 Z"/>
  </g>
  <g id="bullet-char-template(57354)" transform="scale(0.00048828125,-0.00048828125)">
   <path d="M 8,1128 L 1137,1128 1137,0 8,0 8,1128 Z"/>
  </g>
  <g id="bullet-char-template(10146)" transform="scale(0.00048828125,-0.00048828125)">
   <path d="M 174,0 L 602,739 174,1481 1456,739 174,0 Z M 1358,739 L 309,1346 659,739 1358,739 Z"/>
  </g>
  <g id="bullet-char-template(10132)" transform="scale(0.00048828125,-0.00048828125)">
   <path d="M 2015,739 L 1276,0 717,0 1260,543 174,543 174,936 1260,936 717,1481 1274,1481 2015,739 Z"/>
  </g>
  <g id="bullet-char-template(10007)" transform="scale(0.00048828125,-0.00048828125)">
   <path d="M 0,-2 C -7,14 -16,27 -25,37 L 356,567 C 262,823 215,952 215,954 215,979 228,992 255,992 264,992 276,990 289,987 310,991 331,999 354,1012 L 381,999 492,748 772,1049 836,1024 860,1049 C 881,1039 901,1025 922,1006 886,937 835,863 770,784 769,783 710,716 594,584 L 774,223 C 774,196 753,168 711,139 L 727,119 C 717,90 699,76 672,76 641,76 570,178 457,381 L 164,-76 C 142,-110 111,-127 72,-127 30,-127 9,-110 8,-76 1,-67 -2,-52 -2,-32 -2,-23 -1,-13 0,-2 Z"/>
  </g>
  <g id="bullet-char-template(10004)" transform="scale(0.00048828125,-0.00048828125)">
   <path d="M 285,-33 C 182,-33 111,30 74,156 52,228 41,333 41,471 41,549 55,616 82,672 116,743 169,778 240,778 293,778 328,747 346,684 L 369,508 C 377,444 397,411 428,410 L 1163,1116 C 1174,1127 1196,1133 1229,1133 1271,1133 1292,1118 1292,1087 L 1292,965 C 1292,929 1282,901 1262,881 L 442,47 C 390,-6 338,-33 285,-33 Z"/>
  </g>
  <g id="bullet-char-template(9679)" transform="scale(0.00048828125,-0.00048828125)">
   <path d="M 813,0 C 632,0 489,54 383,161 276,268 223,411 223,592 223,773 276,916 383,1023 489,1130 632,1184 813,1184 992,1184 1136,1130 1245,1023 1353,916 1407,772 1407,592 1407,412 1353,268 1245,161 1136,54 992,0 813,0 Z"/>
  </g>
  <g id="bullet-char-template(8226)" transform="scale(0.00048828125,-0.00048828125)">
   <path d="M 346,457 C 273,457 209,483 155,535 101,586 74,649 74,723 74,796 101,859 155,911 209,963 273,989 346,989 419,989 480,963 531,910 582,859 608,796 608,723 608,648 583,586 532,535 482,483 420,457 346,457 Z"/>
  </g>
  <g id="bullet-char-template(8211)" transform="scale(0.00048828125,-0.00048828125)">
   <path d="M -4,459 L 1135,459 1135,606 -4,606 -4,459 Z"/>
  </g>
 </defs>
 <defs class="TextEmbeddedBitmaps"/>
 <g>
  <g id="id2" class="Master_Slide">
   <g id="bg-id2" class="Background"/>
   <g id="bo-id2" class="BackgroundObjects"/>
  </g>
 </g>
 <g class="SlideGroup">
  <g>
   <g id="id1" class="Slide" clip-path="url(#presentation_clip_path)">
    <g class="Page">
     <g class="Graphic">
      <g id="id3">
       <rect class="BoundingBox" stroke="none" fill="none" x="0" y="1" width="2210" height="2210"/>
       <path fill="rgb(255,255,255)" stroke="none" d="M 1104,98 C 1674,98 2111,535 2111,1106 2111,1676 1674,2113 1104,2113 533,2113 96,1676 96,1106 96,535 533,98 1104,98 L 1104,98 Z M 96,98 L 96,98 96,98 Z M 2112,2114 L 2112,2114 2112,2114 Z"/>
       <path fill="none" stroke="rgb(0,0,0)" stroke-width="27" stroke-linejoin="round" d="M 1104,98 C 1674,98 2111,535 2111,1106 2111,1676 1674,2113 1104,2113 533,2113 96,1676 96,1106 96,535 533,98 1104,98 L 1104,98 Z"/>
      </g>
     </g>
     <g class="Graphic">
      <g id="id4">
       <rect class="BoundingBox" stroke="none" fill="none" x="1362" y="141" width="1065" height="924"/>
       <path fill="rgb(95,211,95)" stroke="none" d="M 2399,304 C 2274,218 2214,142 2214,142 1983,279 1737,764 1737,764 1621,602 1505,556 1505,556 1453,626 1363,719 1363,719 1573,775 1749,982 1749,982 2129,385 2399,304 2399,304 L 2399,304 Z"/>
       <path fill="rgb(153,153,153)" fill-opacity="0.2" stroke="rgb(255,255,255)" stroke-opacity="0.2" d="M 1895,1042 L 1895,1042 C 1897,1043 1897,1044 1897,1045 1897,1048 1890,1051 1875,1054 1860,1057 1842,1059 1815,1060 1789,1062 1764,1063 1734,1063 1704,1063 1678,1062 1652,1060 1626,1059 1607,1057 1592,1054 1577,1051 1570,1048 1570,1045 1570,1041 1577,1038 1592,1035 1607,1033 1626,1030 1652,1029 1678,1027 1704,1026 1734,1026 1764,1026 1789,1027 1815,1029 1842,1030 1860,1033 1875,1035 1886,1037 1892,1039 1895,1042 Z"/>
       <path fill="rgb(95,211,95)" fill-opacity="0.278" stroke="rgb(255,255,255)" stroke-opacity="0.278" d="M 2425,304 C 2299,218 2240,143 2240,143 2008,280 1762,765 1762,765 1647,602 1531,557 1531,557 1479,627 1389,720 1389,720 1598,776 1774,983 1774,983 2155,386 2425,304 2425,304 L 2425,304 Z"/>
      </g>
     </g>
    </g>
   </g>
  </g>
 </g>
</svg>